NotoSansDisplay-CondensedLightItalic.ufo
<glyph name="uni0191" format="2">
  <advance width="437"/>
  <unicode hex="0191"/>
  <anchor x="39" y="0" name="bottom"/>
  <anchor x="390" y="714" name="top"/>
  <anchor x="534" y="714" name="topright"/>
  <outline>
    <contour>
      <point x="61" y="-15" type="curve" smooth="yes"/>
      <point x="126" y="-15"/>
      <point x="166" y="30"/>
      <point x="187" y="130" type="curve" smooth="yes"/>
      <point x="237" y="363" type="line"/>
      <point x="421" y="363" type="line"/>
      <point x="426" y="388" type="line"/>
      <point x="242" y="388" type="line"/>
      <point x="306" y="689" type="line"/>
      <point x="502" y="689" type="line"/>
      <point x="507" y="714" type="line"/>
      <point x="286" y="714" type="line"/>
      <point x="163" y="137" type="line" smooth="yes"/>
      <point x="145" y="54"/>
      <point x="117" y="10"/>
      <point x="60" y="10" type="curve" smooth="yes"/>
      <point x="6" y="10"/>
      <point x="-19" y="53"/>
      <point x="-19" y="110" type="curve" smooth="yes"/>
      <point x="-19" y="137"/>
      <point x="-13" y="159"/>
      <point x="-8" y="175" type="curve"/>
      <point x="-31" y="184" type="line"/>
      <point x="-38" y="162"/>
      <point x="-44" y="142"/>
      <point x="-44" y="110" type="curve" smooth="yes"/>
      <point x="-44" y="43"/>
      <point x="-14" y="-15"/>
    </contour>
  </outline>
</glyph>
<glyph name="arrowdoublerightbelowcomb" format="2">
  <unicode hex="0362"/>
  <anchor x="185" y="0" name="_bottom"/>
  <anchor x="145" y="-191" name="bottom"/>
  <outline>
    <contour>
      <point x="335" y="-191" type="line"/>
      <point x="392" y="-128" type="line"/>
      <point x="335" y="-65" type="line"/>
      <point x="335" y="-112" type="line"/>
      <point x="-76" y="-112" type="line"/>
      <point x="-76" y="-142" type="line"/>
      <point x="335" y="-142" type="line"/>
    </contour>
  </outline>
</glyph>
<glyph name="uni0488" format="2">
  <advance width="931"/>
  <unicode hex="0488"/>
  <outline>
    <contour>
      <point x="609" y="463" type="curve"/>
      <point x="638" y="463" type="line"/>
      <point x="644" y="504"/>
      <point x="664" y="521"/>
      <point x="702" y="521" type="curve" smooth="yes"/>
      <point x="739" y="521"/>
      <point x="762" y="502"/>
      <point x="766" y="463" type="curve"/>
      <point x="795" y="463" type="line"/>
      <point x="792" y="526"/>
      <point x="765" y="557"/>
      <point x="705" y="557" type="curve" smooth="yes"/>
      <point x="642" y="557"/>
      <point x="612" y="522"/>
    </contour>
    <contour>
      <point x="94" y="-20" type="curve"/>
      <point x="121" y="-20" type="line"/>
      <point x="128" y="23"/>
      <point x="148" y="38"/>
      <point x="186" y="38" type="curve" smooth="yes"/>
      <point x="224" y="38"/>
      <point x="245" y="19"/>
      <point x="251" y="-20" type="curve"/>
      <point x="279" y="-20" type="line"/>
      <point x="277" y="43"/>
      <point x="247" y="74"/>
      <point x="189" y="74" type="curve" smooth="yes"/>
      <point x="127" y="74"/>
      <point x="96" y="39"/>
    </contour>
    <contour>
      <point x="346" y="-156" type="curve"/>
      <point x="374" y="-156" type="line"/>
      <point x="381" y="-115"/>
      <point x="402" y="-98"/>
      <point x="439" y="-98" type="curve" smooth="yes"/>
      <point x="475" y="-98"/>
      <point x="498" y="-117"/>
      <point x="503" y="-156" type="curve"/>
      <point x="532" y="-156" type="line"/>
      <point x="529" y="-93"/>
      <point x="501" y="-62"/>
      <point x="442" y="-62" type="curve" smooth="yes"/>
      <point x="379" y="-62"/>
      <point x="348" y="-99"/>
    </contour>
    <contour>
      <point x="0" y="223" type="curve"/>
      <point x="28" y="223" type="line"/>
      <point x="35" y="266"/>
      <point x="55" y="281"/>
      <point x="92" y="281" type="curve" smooth="yes"/>
      <point x="130" y="281"/>
      <point x="151" y="262"/>
      <point x="157" y="223" type="curve"/>
      <point x="185" y="223" type="line"/>
      <point x="183" y="287"/>
      <point x="153" y="317"/>
      <point x="95" y="317" type="curve" smooth="yes"/>
      <point x="34" y="317"/>
      <point x="1" y="281"/>
    </contour>
    <contour>
      <point x="96" y="463" type="curve"/>
      <point x="124" y="463" type="line"/>
      <point x="131" y="504"/>
      <point x="150" y="521"/>
      <point x="188" y="521" type="curve" smooth="yes"/>
      <point x="226" y="521"/>
      <point x="247" y="502"/>
      <point x="253" y="463" type="curve"/>
      <point x="281" y="463" type="line"/>
      <point x="279" y="526"/>
      <point x="249" y="557"/>
      <point x="191" y="557" type="curve" smooth="yes"/>
      <point x="129" y="557"/>
      <point x="98" y="521"/>
    </contour>
    <contour>
      <point x="607" y="-20" type="curve"/>
      <point x="636" y="-20" type="line"/>
      <point x="642" y="23"/>
      <point x="662" y="38"/>
      <point x="700" y="38" type="curve" smooth="yes"/>
      <point x="737" y="38"/>
      <point x="759" y="19"/>
      <point x="764" y="-20" type="curve"/>
      <point x="793" y="-20" type="line"/>
      <point x="790" y="42"/>
      <point x="763" y="74"/>
      <point x="703" y="74" type="curve" smooth="yes"/>
      <point x="640" y="74"/>
      <point x="610" y="39"/>
    </contour>
    <contour>
      <point x="704" y="223" type="curve"/>
      <point x="732" y="223" type="line"/>
      <point x="739" y="266"/>
      <point x="759" y="281"/>
      <point x="797" y="281" type="curve" smooth="yes"/>
      <point x="834" y="281"/>
      <point x="855" y="262"/>
      <point x="861" y="223" type="curve"/>
      <point x="890" y="223" type="line"/>
      <point x="887" y="287"/>
      <point x="858" y="317"/>
      <point x="800" y="317" type="curve" smooth="yes"/>
      <point x="739" y="317"/>
      <point x="706" y="281"/>
    </contour>
    <contour>
      <point x="349" y="602" type="curve"/>
      <point x="377" y="602" type="line"/>
      <point x="384" y="644"/>
      <point x="405" y="660"/>
      <point x="442" y="660" type="curve" smooth="yes"/>
      <point x="478" y="660"/>
      <point x="501" y="641"/>
      <point x="506" y="602" type="curve"/>
      <point x="535" y="602" type="line"/>
      <point x="532" y="665"/>
      <point x="504" y="696"/>
      <point x="445" y="696" type="curve" smooth="yes"/>
      <point x="382" y="696"/>
      <point x="351" y="660"/>
    </contour>
  </outline>
</glyph>
<glyph name="uni1D7A" format="2">
  <advance width="521"/>
  <unicode hex="1D7A"/>
  <anchor x="53" y="0" name="bottom_1"/>
  <anchor x="291" y="0" name="bottom_2"/>
  <anchor x="68" y="263" name="center_1"/>
  <anchor x="347" y="263" name="center_2"/>
  <anchor x="146" y="655" name="top_1"/>
  <anchor x="347" y="760" name="top_2"/>
  <anchor x="241" y="655" name="topright_1"/>
  <anchor x="540" y="760" name="topright_2"/>
  <outline>
    <contour>
      <point x="-69" y="-73" type="line"/>
      <point x="-40" y="-73" type="line"/>
      <point x="520" y="760" type="line"/>
      <point x="491" y="760" type="line"/>
    </contour>
    <component base="t"/>
    <component base="h" xOffset="170"/>
  </outline>
</glyph>
<glyph name="plussuperior" format="2">
  <advance width="307"/>
  <unicode hex="207A"/>
  <outline>
    <contour>
      <point x="181" y="334" type="line"/>
      <point x="207" y="334" type="line"/>
      <point x="207" y="444" type="line"/>
      <point x="312" y="444" type="line"/>
      <point x="312" y="469" type="line"/>
      <point x="207" y="469" type="line"/>
      <point x="207" y="584" type="line"/>
      <point x="181" y="584" type="line"/>
      <point x="181" y="469" type="line"/>
      <point x="75" y="469" type="line"/>
      <point x="75" y="444" type="line"/>
      <point x="181" y="444" type="line"/>
    </contour>
  </outline>
</glyph>
<glyph name="equalsuperior" format="2">
  <advance width="307"/>
  <unicode hex="207C"/>
  <outline>
    <contour>
      <point x="75" y="502" type="line"/>
      <point x="312" y="502" type="line"/>
      <point x="312" y="527" type="line"/>
      <point x="75" y="527" type="line"/>
    </contour>
    <contour>
      <point x="75" y="402" type="line"/>
      <point x="312" y="402" type="line"/>
      <point x="312" y="427" type="line"/>
      <point x="75" y="427" type="line"/>
    </contour>
  </outline>
</glyph>
<glyph name="uni20A9" format="2">
  <advance width="586"/>
  <unicode hex="20A9"/>
  <outline>
    <contour>
      <point x="85" y="0" type="line"/>
      <point x="123" y="0" type="line"/>
      <point x="225" y="265" type="line"/>
      <point x="359" y="265" type="line"/>
      <point x="349" y="0" type="line"/>
      <point x="388" y="0" type="line"/>
      <point x="494" y="265" type="line"/>
      <point x="587" y="265" type="line"/>
      <point x="593" y="290" type="line"/>
      <point x="504" y="290" type="line"/>
      <point x="556" y="422" type="line"/>
      <point x="619" y="422" type="line"/>
      <point x="626" y="447" type="line"/>
      <point x="566" y="447" type="line"/>
      <point x="673" y="714" type="line"/>
      <point x="644" y="714" type="line"/>
      <point x="539" y="447" type="line"/>
      <point x="390" y="447" type="line"/>
      <point x="400" y="714" type="line"/>
      <point x="374" y="714" type="line"/>
      <point x="270" y="447" type="line"/>
      <point x="119" y="447" type="line"/>
      <point x="124" y="714" type="line"/>
      <point x="98" y="714" type="line"/>
      <point x="93" y="447" type="line"/>
      <point x="38" y="447" type="line"/>
      <point x="32" y="422" type="line"/>
      <point x="93" y="422" type="line"/>
      <point x="90" y="290" type="line"/>
      <point x="5" y="290" type="line"/>
      <point x="-1" y="265" type="line"/>
      <point x="90" y="265" type="line"/>
    </contour>
    <contour>
      <point x="109" y="28" type="line"/>
      <point x="115" y="265" type="line"/>
      <point x="199" y="265" type="line"/>
    </contour>
    <contour>
      <point x="115" y="290" type="line"/>
      <point x="118" y="422" type="line"/>
      <point x="260" y="422" type="line"/>
      <point x="209" y="290" type="line"/>
    </contour>
    <contour>
      <point x="373" y="24" type="line"/>
      <point x="384" y="265" type="line"/>
      <point x="467" y="265" type="line"/>
    </contour>
    <contour>
      <point x="235" y="290" type="line"/>
      <point x="286" y="422" type="line"/>
      <point x="364" y="422" type="line"/>
      <point x="360" y="290" type="line"/>
    </contour>
    <contour>
      <point x="385" y="290" type="line"/>
      <point x="389" y="422" type="line"/>
      <point x="529" y="422" type="line"/>
      <point x="477" y="290" type="line"/>
    </contour>
    <contour>
      <point x="296" y="447" type="line"/>
      <point x="375" y="659" type="line"/>
      <point x="365" y="447" type="line"/>
    </contour>
  </outline>
</glyph>
<glyph name="cadauna" format="2">
  <advance width="569"/>
  <unicode hex="2106"/>
  <anchor x="174" y="303" name="_top"/>
  <anchor x="429.008" y="327" name="top"/>
  <outline>
    <contour>
      <point x="203" y="364" type="curve" smooth="yes"/>
      <point x="219" y="364"/>
      <point x="237" y="370"/>
      <point x="250" y="378" type="curve"/>
      <point x="250" y="402" type="line"/>
      <point x="235" y="394"/>
      <point x="219" y="389"/>
      <point x="208" y="389" type="curve" smooth="yes"/>
      <point x="178" y="389"/>
      <point x="162" y="409"/>
      <point x="162" y="468" type="curve" smooth="yes"/>
      <point x="162" y="546"/>
      <point x="196" y="679"/>
      <point x="266" y="679" type="curve" smooth="yes"/>
      <point x="277" y="679"/>
      <point x="289" y="676"/>
      <point x="299" y="670" type="curve"/>
      <point x="310" y="694" type="line"/>
      <point x="298" y="701"/>
      <point x="283" y="704"/>
      <point x="266" y="704" type="curve" smooth="yes"/>
      <point x="176" y="704"/>
      <point x="135" y="564"/>
      <point x="135" y="465" type="curve" smooth="yes"/>
      <point x="135" y="394"/>
      <point x="158" y="364"/>
    </contour>
    <contour>
      <point x="-6" y="0" type="line"/>
      <point x="28" y="0" type="line"/>
      <point x="581" y="714" type="line"/>
      <point x="548" y="714" type="line"/>
    </contour>
    <contour>
      <point x="343.008" y="-6" type="curve" smooth="yes"/>
      <point x="370.008" y="-6"/>
      <point x="396.008" y="13"/>
      <point x="413.008" y="44" type="curve"/>
      <point x="415.008" y="44" type="line"/>
      <point x="409.008" y="0" type="line"/>
      <point x="428.008" y="0" type="line"/>
      <point x="498.008" y="327" type="line"/>
      <point x="473.008" y="327" type="line"/>
      <point x="433.008" y="139" type="line" smooth="yes"/>
      <point x="416.008" y="62"/>
      <point x="387.008" y="19"/>
      <point x="347.008" y="19" type="curve" smooth="yes"/>
      <point x="328.008" y="19"/>
      <point x="317.008" y="33"/>
      <point x="317.008" y="54" type="curve" smooth="yes"/>
      <point x="317.008" y="68"/>
      <point x="320.008" y="86"/>
      <point x="325.008" y="109" type="curve" smooth="yes"/>
      <point x="372.008" y="327" type="line"/>
      <point x="347.008" y="327" type="line"/>
      <point x="300.008" y="109" type="line" smooth="yes"/>
      <point x="294.008" y="84"/>
      <point x="291.008" y="68"/>
      <point x="291.008" y="52" type="curve" smooth="yes"/>
      <point x="291.008" y="15"/>
      <point x="310.008" y="-6"/>
    </contour>
  </outline>
</glyph>
<glyph name="uni2DF5" format="2">
  <unicode hex="2DF5"/>
  <anchor x="56" y="526" name="_top"/>
  <anchor x="119" y="830" name="top"/>
  <anchor x="236" y="830" name="topright"/>
  <outline>
    <contour>
      <point x="39" y="616" type="curve" smooth="yes"/>
      <point x="52" y="616"/>
      <point x="62" y="619"/>
      <point x="68" y="622" type="curve"/>
      <point x="69" y="632" type="line"/>
      <point x="60" y="628"/>
      <point x="50" y="626"/>
      <point x="41" y="626" type="curve" smooth="yes"/>
      <point x="15" y="626"/>
      <point x="3" y="640"/>
      <point x="3" y="679" type="curve" smooth="yes"/>
      <point x="3" y="738"/>
      <point x="33" y="820"/>
      <point x="92" y="820" type="curve" smooth="yes"/>
      <point x="153" y="820" type="line"/>
      <point x="104" y="620" type="line"/>
      <point x="116" y="620" type="line"/>
      <point x="165" y="820" type="line"/>
      <point x="219" y="820" type="line"/>
      <point x="221" y="830" type="line"/>
      <point x="92" y="830" type="line" smooth="yes"/>
      <point x="22" y="830"/>
      <point x="-9" y="738"/>
      <point x="-9" y="678" type="curve" smooth="yes"/>
      <point x="-9" y="633"/>
      <point x="7" y="616"/>
    </contour>
  </outline>
</glyph>
<glyph name="uniA65C" format="2">
  <advance width="514"/>
  <unicode hex="A65C"/>
  <outline>
    <contour>
      <point x="115" y="0" type="line"/>
      <point x="416" y="0" type="line"/>
      <point x="415" y="25" type="line"/>
      <point x="126" y="25" type="line"/>
    </contour>
    <component base="uniA656"/>
  </outline>
</glyph>
<glyph name="uniA665" format="2">
  <advance width="433"/>
  <unicode hex="A665"/>
  <anchor x="109" y="0" name="bottom"/>
  <anchor x="221" y="526" name="top"/>
  <outline>
    <contour>
      <point x="204" y="0" type="line"/>
      <point x="229" y="0" type="line"/>
      <point x="334" y="501" type="line"/>
      <point x="478" y="501" type="line"/>
      <point x="483" y="526" type="line"/>
      <point x="316" y="526" type="line"/>
    </contour>
    <component base="afii10077"/>
  </outline>
</glyph>
<glyph name="uniA667" format="2">
  <advance width="505"/>
  <unicode hex="A667"/>
  <anchor x="156" y="0" name="bottom"/>
  <anchor x="268" y="526" name="top"/>
  <outline>
    <contour>
      <point x="403" y="501" type="line"/>
      <point x="554" y="501" type="line"/>
      <point x="559" y="526" type="line"/>
      <point x="392" y="526" type="line"/>
    </contour>
    <component base="afii10078"/>
  </outline>
</glyph>
<glyph name="uniA671" format="2">
  <unicode hex="A671"/>
  <outline>
    <contour>
      <point x="-357" y="629" type="line"/>
      <point x="-326" y="630" type="line"/>
      <point x="-299" y="763" type="line"/>
      <point x="511" y="763" type="line"/>
      <point x="482" y="629" type="line"/>
      <point x="512" y="630" type="line"/>
      <point x="547" y="791" type="line"/>
      <point x="-322" y="791" type="line"/>
    </contour>
    <contour>
      <point x="-536" y="-271" type="line"/>
      <point x="332" y="-271" type="line"/>
      <point x="367" y="-110" type="line"/>
      <point x="337" y="-111" type="line"/>
      <point x="310" y="-243" type="line"/>
      <point x="-500" y="-243" type="line"/>
      <point x="-471" y="-110" type="line"/>
      <point x="-501" y="-111" type="line"/>
    </contour>
  </outline>
</glyph>
<glyph name="uniA672" format="2">
  <unicode hex="A672"/>
  <outline>
    <contour>
      <point x="59" y="589" type="line"/>
      <point x="75" y="589" type="line"/>
      <point x="104" y="733" type="line"/>
      <point x="234" y="733" type="line"/>
      <point x="237" y="752" type="line"/>
      <point x="108" y="752" type="line"/>
      <point x="139" y="896" type="line"/>
      <point x="124" y="896" type="line"/>
      <point x="93" y="752" type="line"/>
      <point x="-34" y="752" type="line"/>
      <point x="-38" y="733" type="line"/>
      <point x="89" y="733" type="line"/>
    </contour>
    <contour>
      <point x="-307" y="-375" type="line"/>
      <point x="-293" y="-375" type="line"/>
      <point x="-229" y="-70" type="line"/>
      <point x="-243" y="-70" type="line"/>
    </contour>
    <contour>
      <point x="-589" y="76" type="line"/>
      <point x="-316" y="76" type="line"/>
      <point x="-312" y="95" type="line"/>
      <point x="-585" y="95" type="line"/>
    </contour>
    <contour>
      <point x="-144" y="-375" type="line"/>
      <point x="-128" y="-375" type="line"/>
      <point x="-64" y="-70" type="line"/>
      <point x="-80" y="-70" type="line"/>
    </contour>
    <contour>
      <point x="21" y="-375" type="line"/>
      <point x="37" y="-375" type="line"/>
      <point x="101" y="-70" type="line"/>
      <point x="85" y="-70" type="line"/>
    </contour>
    <contour>
      <point x="-550" y="261" type="line"/>
      <point x="-277" y="261" type="line"/>
      <point x="-273" y="280" type="line"/>
      <point x="-546" y="280" type="line"/>
    </contour>
    <contour>
      <point x="-510" y="446" type="line"/>
      <point x="-238" y="446" type="line"/>
      <point x="-233" y="465" type="line"/>
      <point x="-506" y="465" type="line"/>
    </contour>
    <contour>
      <point x="239" y="76" type="line"/>
      <point x="511" y="76" type="line"/>
      <point x="516" y="95" type="line"/>
      <point x="243" y="95" type="line"/>
    </contour>
    <contour>
      <point x="278" y="261" type="line"/>
      <point x="550" y="261" type="line"/>
      <point x="555" y="280" type="line"/>
      <point x="282" y="280" type="line"/>
    </contour>
    <contour>
      <point x="317" y="446" type="line"/>
      <point x="590" y="446" type="line"/>
      <point x="594" y="465" type="line"/>
      <point x="321" y="465" type="line"/>
    </contour>
  </outline>
</glyph>
<glyph name="uniA73B" format="2">
  <advance width="498"/>
  <unicode hex="A73B"/>
  <anchor x="200" y="0" name="bottom"/>
  <anchor x="313" y="526" name="top"/>
  <outline>
    <contour>
      <point x="307" y="272" type="line"/>
      <point x="412" y="272" type="line"/>
      <point x="422" y="297" type="line"/>
      <point x="313" y="297" type="line"/>
    </contour>
    <component base="uniA739"/>
  </outline>
</glyph>
<glyph name="uniA744" format="2">
  <advance width="339"/>
  <unicode hex="A744"/>
  <anchor x="115" y="0" name="bottom"/>
  <anchor x="277" y="714" name="top"/>
  <anchor x="417" y="714" name="topright"/>
  <outline>
    <contour>
      <point x="151" y="149" type="line"/>
      <point x="304" y="196" type="line"/>
      <point x="298" y="219" type="line"/>
      <point x="143" y="172" type="line"/>
    </contour>
    <component base="uniA740"/>
  </outline>
</glyph>
<glyph name="uniA75C" format="2">
  <advance width="416"/>
  <unicode hex="A75C"/>
  <outline>
    <contour>
      <point x="7" y="159" type="line"/>
      <point x="352" y="159" type="line"/>
      <point x="357" y="184" type="line"/>
      <point x="46" y="184" type="line"/>
      <point x="46" y="186" type="line"/>
      <point x="234" y="380" type="line" smooth="yes"/>
      <point x="309" y="457"/>
      <point x="350" y="517"/>
      <point x="350" y="596" type="curve" smooth="yes"/>
      <point x="350" y="678"/>
      <point x="304" y="724"/>
      <point x="230" y="724" type="curve" smooth="yes"/>
      <point x="178" y="724"/>
      <point x="142" y="706"/>
      <point x="116" y="688" type="curve"/>
      <point x="129" y="665" type="line"/>
      <point x="158" y="686"/>
      <point x="188" y="699"/>
      <point x="229" y="699" type="curve" smooth="yes"/>
      <point x="289" y="699"/>
      <point x="323" y="662"/>
      <point x="323" y="595" type="curve" smooth="yes"/>
      <point x="323" y="526"/>
      <point x="288" y="471"/>
      <point x="211" y="392" type="curve" smooth="yes"/>
      <point x="8" y="183" type="line"/>
    </contour>
    <contour>
      <point x="209" y="0" type="line"/>
      <point x="235" y="0" type="line"/>
      <point x="304" y="324" type="line"/>
      <point x="278" y="324" type="line"/>
    </contour>
  </outline>
</glyph>
<glyph name="uniA75E" format="2">
  <advance width="338"/>
  <unicode hex="A75E"/>
  <anchor x="102" y="0" name="bottom"/>
  <anchor x="246" y="714" name="top"/>
  <anchor x="415" y="714" name="topright"/>
  <outline>
    <contour>
      <point x="-12" y="0" type="line"/>
      <point x="16" y="0" type="line"/>
      <point x="308" y="714" type="line"/>
      <point x="280" y="714" type="line"/>
    </contour>
    <component base="V"/>
  </outline>
</glyph>
<glyph name="uniA75F" format="2">
  <advance width="266"/>
  <unicode hex="A75F"/>
  <anchor x="77" y="0" name="bottom"/>
  <anchor x="189" y="526" name="top"/>
  <anchor x="302" y="526" name="topright"/>
  <outline>
    <contour>
      <point x="-54" y="-90" type="line"/>
      <point x="-29" y="-90" type="line"/>
      <point x="268" y="624" type="line"/>
      <point x="243" y="624" type="line"/>
    </contour>
    <component base="v"/>
  </outline>
</glyph>
<glyph name="uniA773" format="2">
  <advance width="666"/>
  <unicode hex="A773"/>
  <anchor x="211" y="0" name="bottom"/>
  <anchor x="323" y="526" name="top"/>
  <anchor x="570" y="526" name="topright"/>
  <outline>
    <contour>
      <point x="389" y="-157" type="line"/>
      <point x="418" y="-157" type="line"/>
      <point x="644" y="185" type="line"/>
      <point x="615" y="185" type="line"/>
    </contour>
    <contour>
      <point x="413" y="0" type="line"/>
      <point x="599" y="0" type="line"/>
      <point x="604" y="25" type="line"/>
      <point x="418" y="25" type="line"/>
    </contour>
    <component base="m"/>
  </outline>
</glyph>
<glyph name="uniA781" format="2">
  <advance width="170"/>
  <unicode hex="A781"/>
  <outline>
    <contour>
      <point x="-47" y="-240" type="line"/>
      <point x="-21" y="-240" type="line"/>
      <point x="142" y="526" type="line"/>
      <point x="116" y="526" type="line"/>
    </contour>
  </outline>
</glyph>
<glyph name="uniA7A1" format="2">
  <advance width="383"/>
  <unicode hex="A7A1"/>
  <anchor x="78" y="-240" name="bottom"/>
  <anchor x="241" y="526" name="top"/>
  <anchor x="386" y="526" name="topright"/>
  <outline>
    <contour>
      <point x="-14" y="206" type="line"/>
      <point x="387" y="308" type="line"/>
      <point x="392" y="334" type="line"/>
      <point x="-9" y="232" type="line"/>
    </contour>
    <component base="g"/>
  </outline>
</glyph>
<glyph name="uniA7AE" format="2">
  <advance width="362"/>
  <unicode hex="A7AE"/>
  <anchor x="125" y="0" name="bottom"/>
  <anchor x="277" y="714" name="top"/>
  <outline>
    <contour>
      <point x="425" y="714" type="line"/>
      <point x="129" y="714" type="line"/>
      <point x="125" y="697" type="line"/>
      <point x="259" y="689" type="line"/>
      <point x="117" y="24" type="line"/>
      <point x="-19" y="18" type="line"/>
      <point x="-23" y="0" type="line"/>
      <point x="273" y="0" type="line"/>
      <point x="277" y="18" type="line"/>
      <point x="143" y="24" type="line"/>
      <point x="285" y="689" type="line"/>
      <point x="421" y="697" type="line"/>
    </contour>
  </outline>
</glyph>
<glyph name="uniAB41" format="2">
  <advance width="577"/>
  <unicode hex="AB41"/>
  <anchor x="350" y="526" name="bottom"/>
  <anchor x="238" y="0" name="top"/>
  <outline>
    <contour>
      <point x="219" y="-56" type="line"/>
      <point x="598" y="557" type="line"/>
      <point x="577" y="571" type="line"/>
      <point x="198" y="-43" type="line"/>
    </contour>
    <component base="oe" xScale="-1" yScale="-1" xOffset="579" yOffset="526"/>
  </outline>
</glyph>
<glyph name="uniAB43" format="2">
  <advance width="588"/>
  <unicode hex="AB43"/>
  <anchor x="350" y="0" name="bottom"/>
  <anchor x="406" y="263" name="center"/>
  <anchor x="462" y="526" name="top"/>
  <anchor x="618" y="526" name="topright"/>
  <outline>
    <contour>
      <point x="144" y="-10" type="curve" smooth="yes"/>
      <point x="202" y="-10"/>
      <point x="255" y="26"/>
      <point x="283" y="55" type="curve"/>
      <point x="280" y="80" type="line"/>
      <point x="249" y="49"/>
      <point x="199" y="15"/>
      <point x="146" y="15" type="curve" smooth="yes"/>
      <point x="85" y="15"/>
      <point x="57" y="50"/>
      <point x="57" y="149" type="curve" smooth="yes"/>
      <point x="57" y="301"/>
      <point x="123" y="511"/>
      <point x="239" y="511" type="curve" smooth="yes"/>
      <point x="257" y="511"/>
      <point x="274" y="508"/>
      <point x="290" y="500" type="curve"/>
      <point x="299" y="525" type="line"/>
      <point x="284" y="532"/>
      <point x="262" y="536"/>
      <point x="239" y="536" type="curve" smooth="yes"/>
      <point x="98" y="536"/>
      <point x="31" y="303"/>
      <point x="31" y="147" type="curve" smooth="yes"/>
      <point x="31" y="32"/>
      <point x="67" y="-10"/>
    </contour>
    <component base="o" xOffset="229"/>
  </outline>
</glyph>
<glyph name="uniFE20" format="2">
  <unicode hex="FE20"/>
  <outline>
    <contour>
      <point x="-143" y="587" type="curve"/>
      <point x="-119" y="587" type="line"/>
      <point x="-87" y="674"/>
      <point x="-5" y="737"/>
      <point x="103" y="737" type="curve"/>
      <point x="103" y="764" type="line"/>
      <point x="-18" y="764"/>
      <point x="-103" y="703"/>
    </contour>
  </outline>
</glyph>
<glyph name="combiningconjoiningmacron" format="2">
  <unicode hex="FE26"/>
  <outline>
    <contour>
      <point x="-134" y="613" type="line"/>
      <point x="285" y="613" type="line"/>
      <point x="290" y="638" type="line"/>
      <point x="-129" y="638" type="line"/>
    </contour>
  </outline>
</glyph>
<glyph name="uniFE2E" format="2">
  <unicode hex="FE2E"/>
  <outline>
    <contour>
      <point x="-12" y="578" type="curve" smooth="yes"/>
      <point x="10" y="578"/>
      <point x="24" y="594"/>
      <point x="25" y="624" type="curve"/>
      <point x="198" y="624" type="line"/>
      <point x="198" y="647" type="line"/>
      <point x="-1" y="647" type="line" smooth="yes"/>
      <point x="-31" y="647"/>
      <point x="-45" y="635"/>
      <point x="-45" y="612" type="curve" smooth="yes"/>
      <point x="-45" y="589"/>
      <point x="-32" y="578"/>
    </contour>
  </outline>
</glyph>
<glyph name="uniFE2F" format="2">
  <unicode hex="FE2F"/>
  <outline>
    <contour>
      <point x="-40" y="625" type="line"/>
      <point x="159" y="625" type="line" smooth="yes"/>
      <point x="190" y="625"/>
      <point x="203" y="637"/>
      <point x="203" y="660" type="curve" smooth="yes"/>
      <point x="203" y="683"/>
      <point x="191" y="694"/>
      <point x="170" y="694" type="curve" smooth="yes"/>
      <point x="148" y="694"/>
      <point x="135" y="678"/>
      <point x="133" y="648" type="curve"/>
      <point x="-40" y="648" type="line"/>
    </contour>
  </outline>
</glyph>
<glyph name="uniA7F7.salt" format="2">
  <advance width="705"/>
  <outline>
    <contour>
      <point x="58" y="387" type="line"/>
      <point x="53" y="362" type="line"/>
      <point x="674" y="362" type="line"/>
      <point x="680" y="387" type="line"/>
    </contour>
  </outline>
</glyph>
